<svg xmlns="http://www.w3.org/2000/svg" viewBox="0 0 16 16" width="16" height="16"><title>spaceship</title><g class="nc-icon-wrapper" stroke="none" fill="#5c7499"><path fill="#5c7499" d="M16,0c-3,0.2-5.5,1.1-7.4,2.4l0,0C6.5,1.4,4,1.8,2.3,3.6C2,3.9,1.7,4.3,1.4,4.7l2.5,2.5l0,0 c-0.7,1.2-1.1,2-1.1,2l4.1,4.1c0,0,0.8-0.3,2-1.1l2.5,2.5c0.4-0.2,0.8-0.5,1.1-0.9c1.7-1.7,2.1-4.3,1.2-6.4C14.9,5.4,15.8,3,16,0z"/> <path data-color="color-2" d="M0.6,12.6c0.8-0.8,2-0.8,2.8,0s0.8,2,0,2.8S0,16,0,16S-0.2,13.3,0.6,12.6z"/></g></svg>